<?xml version="1.0" standalone="no"?>
<!DOCTYPE svg PUBLIC "-//W3C//DTD SVG 20010904//EN"
 "http://www.w3.org/TR/2001/REC-SVG-20010904/DTD/svg10.dtd">
<svg version="1.0" xmlns="http://www.w3.org/2000/svg"
 width="677.000000pt" height="677.000000pt" viewBox="0 0 677.000000 677.000000"
 preserveAspectRatio="xMidYMid meet">
<metadata>
Created by potrace 1.14, written by Peter Selinger 2001-2017
</metadata>
<g transform="translate(0.000000,677.000000) scale(0.100000,-0.100000)"
fill="#000000" stroke="none">
<path d="M3178 4955 c-2 -1 -28 -5 -58 -9 -30 -4 -68 -8 -85 -11 -16 -2 -70
-7 -120 -10 -49 -3 -108 -11 -130 -17 -54 -15 -62 -17 -125 -24 -30 -3 -73
-12 -95 -19 -22 -7 -58 -15 -81 -19 -22 -3 -53 -12 -70 -20 -16 -8 -40 -17
-54 -19 -14 -2 -42 -11 -62 -21 -21 -9 -41 -16 -45 -16 -34 0 -383 -161 -450
-208 -53 -38 -140 -92 -146 -92 -3 0 -23 -16 -44 -35 -21 -19 -42 -35 -47 -35
-5 0 -16 -7 -25 -15 -9 -8 -38 -34 -65 -57 -80 -70 -238 -229 -286 -288 -25
-30 -50 -59 -56 -65 -6 -5 -20 -26 -32 -45 -12 -20 -30 -47 -42 -59 -11 -13
-20 -27 -20 -31 0 -4 -9 -17 -20 -30 -11 -13 -20 -29 -20 -37 0 -7 -4 -13 -9
-13 -4 0 -24 -30 -42 -67 -19 -38 -36 -70 -39 -73 -3 -3 -19 -32 -34 -65 -16
-33 -32 -67 -36 -76 -5 -9 -23 -54 -40 -100 -18 -46 -38 -96 -46 -111 -8 -14
-14 -35 -14 -47 0 -12 -9 -47 -19 -78 -11 -32 -22 -75 -26 -96 -3 -21 -9 -46
-14 -55 -9 -17 -18 -73 -26 -167 -6 -60 -9 -77 -16 -90 -7 -13 -3 -173 5 -205
4 -14 9 -50 12 -80 6 -60 13 -89 42 -165 34 -90 55 -135 64 -135 4 0 8 -5 8
-11 0 -18 98 -130 143 -162 23 -17 48 -37 55 -44 7 -7 19 -13 25 -13 7 0 24
-8 37 -17 14 -10 33 -19 43 -20 10 -2 31 -10 46 -18 16 -8 46 -17 67 -21 63
-10 4487 -13 4543 -2 84 15 152 51 215 114 78 80 86 89 86 102 0 6 9 28 19 49
11 21 22 65 25 98 3 33 8 83 12 110 10 65 10 195 0 265 -4 30 -9 80 -11 110
-3 30 -7 80 -9 110 -6 64 -12 99 -26 135 -6 15 -10 41 -10 59 0 19 -7 53 -16
77 -9 24 -18 60 -21 79 -3 19 -14 55 -25 78 -11 24 -17 46 -14 50 3 3 -3 19
-13 36 -10 17 -22 47 -26 66 -4 19 -13 42 -20 50 -7 8 -16 30 -20 48 -3 17
-10 32 -15 32 -5 0 -11 13 -15 30 -4 16 -11 32 -16 36 -5 3 -17 23 -26 45 -8
21 -19 39 -24 39 -5 0 -9 5 -9 12 0 10 -86 156 -99 168 -4 3 -20 25 -36 50
-17 25 -34 50 -40 57 -5 6 -30 35 -55 64 -63 73 -245 256 -304 304 -26 22 -57
48 -67 58 -11 9 -23 17 -27 17 -5 0 -17 9 -27 20 -10 11 -24 20 -31 20 -7 0
-18 9 -24 20 -6 11 -17 20 -25 20 -7 0 -20 6 -27 13 -14 14 -50 35 -105 61
-18 8 -33 20 -33 25 0 6 -8 11 -19 11 -10 0 -30 9 -44 20 -14 11 -31 20 -39
20 -7 0 -26 9 -43 20 -16 11 -36 20 -44 20 -8 0 -22 6 -30 13 -9 8 -36 21 -61
29 -56 20 -106 38 -145 53 -16 7 -64 22 -105 35 -41 12 -100 31 -130 41 -30
10 -74 20 -98 23 -23 3 -50 10 -60 15 -9 5 -44 12 -77 15 -33 4 -85 13 -115
21 -30 7 -95 16 -145 20 -112 7 -173 13 -229 24 -39 7 -301 13 -308 6z m2392
-1580 c14 -19 14 -19 -2 -6 -10 7 -18 18 -18 24 0 6 1 8 3 6 1 -2 9 -13 17
-24z"/>
</g>
</svg>
